Motion_sv07_l
version=1
nRows=13
nColumns=43
inDegrees=yes
endheader
time	pelvis_tilt	pelvis_list	pelvis_rotation	pelvis_tx	pelvis_ty	pelvis_tz	hip_flexion_r	hip_adduction_r	hip_rotation_r	knee_angle_r	ankle_angle_r	subtalar_angle_r	mtp_angle_r	hip_flexion_l	hip_adduction_l	hip_rotation_l	knee_angle_l	ankle_angle_l	subtalar_angle_l	mtp_angle_l	lumbar_extension	lumbar_bending	lumbar_rotation	neck_flexion	neck_lateral_bending	neck_rotation	arm_flex_r	arm_add_r	arm_rot_r	elbow_flex_r	pro_sup_r	wrist_flex_r	wrist_dev_r	hand_finger_flex_r	arm_flex_l	arm_add_l	arm_rot_l	elbow_flex_l	pro_sup_l	wrist_flex_l	wrist_dev_l	hand_finger_flex_l
      0.00250000	    -10.45503747	     -6.17022706	    112.14400998	      0.01830344	      0.90525102	      1.86969564	     27.11022025	    -13.15626745	     -8.02618296	    -56.25485187	     18.71884225	    -17.88205721	     -1.52669148	     39.56326047	     -3.36595359	      0.76238814	   -105.34343547	      6.30152648	    -17.29096581	     16.55089396	    -30.84933436	     14.85956224	      6.70388062	     35.98350653	     -7.50169614	     -1.66830268	     85.45261476	    -44.74875423	     27.09520353	     73.59504955	    162.59314835	     21.94729382	      8.54274200	    -56.74733104	     67.62502195	    -31.81664018	     24.93549780	    111.55603613	    133.13178755	    -41.26578877	    -16.93005069	      7.00270304
      0.00500000	    -10.94427641	     -6.05973679	    112.07218882	      0.01950541	      0.90621650	      1.86595178	     26.49614845	    -13.42319155	     -8.09702844	    -56.06841162	     18.98146483	    -18.08465591	     -1.44886247	     40.49932658	     -3.55353313	      0.43550356	   -106.26411847	      6.97119914	    -15.74522176	     17.25922131	    -31.09696842	     14.21543230	      6.92903787	     35.70812865	     -7.17506559	     -2.07872902	     85.02220444	    -45.48923390	     26.65668062	     73.91700157	    162.52810743	     21.37613800	      8.57987836	    -53.04013047	     69.18062684	    -32.34413103	     26.09826874	    111.14984944	    132.06378097	    -43.16122161	    -17.24019347	     11.38189597
      0.00750000	    -11.28592935	     -5.99489623	    112.11685559	      0.01994853	      0.90747887	      1.86258892	     25.92309867	    -13.69539874	     -8.37389885	    -55.78743554	     18.99592957	    -18.15549994	     -1.45125927	     41.58413762	     -3.63397921	      0.13286148	   -107.15353236	      7.06015068	    -15.67626913	     17.36760650	    -31.26706682	     13.94618367	      7.00236974	     35.60868191	     -7.45869834	     -2.07709719	     85.12272263	    -45.98016173	     26.87273804	     73.98517068	    161.79112809	     22.29164255	      9.42695061	    -52.33410253	     70.09254687	    -32.93040165	     26.34480695	    111.08880006	    132.14330342	    -43.13062227	    -17.27978968	     11.75365112
      0.01000000	    -11.62988133	     -5.89313119	    112.12919266	      0.02058976	      0.90869575	      1.85903330	     25.30546878	    -13.92779662	     -8.61551193	    -55.51697807	     19.13233008	    -18.14076945	     -1.41799449	     42.62355957	     -3.82088464	     -0.14653376	   -108.04839002	      7.38229174	    -15.14760639	     17.61790165	    -31.46512731	     13.59254085	      7.19748775	     35.38129793	     -7.53579519	     -2.37403636	     85.02240386	    -46.66877355	     26.92087387	     74.19140933	    161.11113639	     23.17799450	     10.02502737	    -51.30425164	     71.27191959	    -33.45437536	     26.96281702	    110.92297654	    131.98089398	    -43.24157856	    -17.20806603	     12.08328400
      0.01250000	    -11.99561774	     -5.79410257	    112.13017338	      0.02143887	      0.90991271	      1.85538900	     24.73076313	    -14.14486181	     -8.77202105	    -55.32900014	     19.25463428	    -18.15592092	     -1.38644111	     43.64964459	     -4.03420699	     -0.43374063	   -108.90269680	      7.66126334	    -14.80552487	     17.79653229	    -31.67648970	     13.23695906	      7.28496234	     35.13194987	     -7.85200629	     -2.49713246	     84.91374272	    -47.15017808	     26.93091040	     74.36103810	    160.36454374	     24.18434920	     10.22406905	    -50.45079814	     72.46313113	    -34.18473429	     27.43489723	    110.77845791	    131.98613949	    -43.19383820	    -17.30842933	     12.26444986
      0.01500000	    -12.46905007	     -5.67988297	    112.08743196	      0.02248170	      0.91136144	      1.85148628	     24.02713291	    -14.46778524	     -8.96794182	    -55.00816219	     19.41843435	    -17.93621785	     -1.24665263	     44.56299079	     -4.27474005	     -0.76003897	   -109.72190438	      8.26379162	    -13.65659046	     18.49918005	    -31.90180571	     12.60006276	      7.68557585	     34.82676724	     -7.75570148	     -3.18181199	     84.22436479	    -48.25771863	     26.41598934	     74.98340908	    159.93532899	     25.26288548	     10.66565286	    -47.80233715	     74.22317758	    -34.37474776	     28.90035809	    110.17603220	    131.31291559	    -43.95908295	    -17.24662041	     12.68107097
      0.01750000	    -12.87693494	     -5.64671635	    112.07293857	      0.02302237	      0.91281170	      1.84801328	     23.49650452	    -14.79922181	     -9.13842348	    -54.77438938	     19.44619804	    -17.97431501	     -1.22004764	     45.65806699	     -4.41599284	     -1.10488906	   -110.54602997	      8.40413626	    -13.47023897	     18.64034092	    -32.08403625	     12.23421231	      7.67680988	     34.60045931	     -8.00499198	     -3.18921701	     84.22602170	    -48.66930218	     26.60391194	     75.13006462	    158.72652136	     26.89165995	     10.63145863	    -46.75838470	     75.30265699	    -35.11871601	     29.20265282	    110.13545080	    131.39316279	    -43.81630310	    -17.41690862	     12.85381990
      0.02000000	    -13.47876279	     -5.63189094	    112.01422518	      0.02406701	      0.91435098	      1.84426981	     22.89478776	    -15.31937157	     -9.29265038	    -54.48433554	     19.64252502	    -17.67543296	     -0.88719791	     46.62700886	     -4.52503311	     -1.50779633	   -111.29796526	      8.81151445	    -12.58346061	     19.52687810	    -32.28059791	     11.43492962	      7.97807635	     34.29573632	     -7.73539925	     -3.90990991	     83.41213032	    -49.78736861	     25.93922191	     75.97254188	    158.43518802	     28.62407662	     10.51243206	    -42.90817981	     77.21759549	    -35.29168253	     30.73800619	    109.48572301	    130.58463866	    -44.63646835	    -17.50320528	     13.41772348
      0.02250000	    -13.91869835	     -5.66528430	    112.02261826	      0.02450125	      0.91604162	      1.84096010	     22.37343688	    -15.75127894	     -9.53310965	    -54.14818501	     19.54551746	    -17.60188442	     -0.82026903	     47.77601950	     -4.61130160	     -1.83883444	   -112.06747147	      8.97629292	    -12.33054275	     19.73707666	    -32.40695731	     11.02904015	      7.97395634	     34.11099643	     -7.98806912	     -3.95330514	     83.27845558	    -50.32160573	     26.08717001	     76.34626561	    157.07867632	     30.86330142	     10.88775521	    -41.35062993	     78.41631343	    -35.86168539	     31.20622148	    109.34710483	    130.49703648	    -44.44792989	    -17.51868585	     13.66821703
      0.02500000	    -14.51048443	     -5.67535195	    111.99980348	      0.02559140	      0.91768966	      1.83703819	     21.79306380	    -16.26474589	     -9.70606418	    -53.89034795	     19.69191791	    -17.28072609	     -0.40123744	     48.75971191	     -4.75819865	     -2.22615502	   -112.77682611	      9.28695303	    -11.70576332	     20.39135623	    -32.55687691	     10.25983556	      8.12926017	     33.72695608	     -7.86526577	     -4.57767739	     82.25540393	    -51.22854968	     25.18491058	     77.20513112	    156.48881955	     32.87899972	     10.30770964	    -37.94006141	     80.29689850	    -36.15685387	     32.66195778	    108.79720831	    129.83353349	    -45.02296934	    -17.58105883	     14.11070285
      0.02750000	    -14.94662669	     -5.71281690	    111.98343670	      0.02613329	      0.91944075	      1.83383162	     21.28439614	    -16.70110834	     -9.97423686	    -53.53666685	     19.55742404	    -17.19582869	     -0.31107415	     49.92053445	     -4.88535362	     -2.53067718	   -113.53066491	      9.43680712	    -11.49548094	     20.55893305	    -32.68435087	      9.83479472	      8.09553618	     33.49551364	     -8.06949911	     -4.60867420	     81.99605075	    -51.69514441	     25.18237090	     77.65594517	    155.03058061	     35.28966942	     10.50114184	    -36.35968276	     81.59714579	    -36.74035527	     33.21801348	    108.61236808	    129.76670876	    -44.82917621	    -17.61618694	     14.34169420
      0.03000000	    -15.54937884	     -5.74431637	    111.96601017	      0.02720583	      0.92119656	      1.82994707	     20.70369319	    -17.24606606	    -10.16884638	    -53.25343164	     19.61798709	    -16.84439141	      0.14667933	     50.90538585	     -5.04623113	     -2.92375291	   -114.19978706	      9.71476127	    -11.00655339	     21.01038459	    -32.80416870	      9.04009997	      8.19012913	     33.05840391	     -7.88366097	     -5.20621168	     80.70799080	    -52.54680225	     24.02339282	     78.57789173	    154.19661156	     37.26911197	      9.93330230	    -33.42383229	     83.54191946	    -36.97312614	     34.77529516	    108.03308129	    129.10419232	    -45.36507474	    -17.54529788	     14.71402318
      0.03250000	    -15.92686850	     -5.71963649	    111.89631071	      0.02788772	      0.92304729	      1.82647462	     20.18521857	    -17.56739818	    -10.39679066	    -52.95020015	     19.43745562	    -16.77048085	      0.19580296	     51.99867501	     -5.33132279	     -3.17730488	   -114.95014151	      9.87307832	    -10.93982093	     21.09258862	    -32.93944781	      8.67483708	      8.06972612	     32.58924470	     -8.19808280	     -5.12930719	     80.31377717	    -52.70852368	     23.86327111	     78.90706887	    152.68717896	     39.31645405	      9.74686638	    -32.30327193	     84.76603555	    -37.72414689	     35.23458262	    107.88536573	    129.21673444	    -45.11830444	    -17.69025086	     14.89723141
